<?xml version="1.0" standalone="no"?><!DOCTYPE svg PUBLIC "-//W3C//DTD SVG 1.1//EN" "http://www.w3.org/Graphics/SVG/1.1/DTD/svg11.dtd"><svg t="1653099771340" class="icon" viewBox="0 0 1024 1024" version="1.1" xmlns="http://www.w3.org/2000/svg" p-id="4319" width="34" height="34" xmlns:xlink="http://www.w3.org/1999/xlink"><defs><style type="text/css">@font-face { font-family: feedback-iconfont; src: url("//at.alicdn.com/t/font_1031158_u69w8yhxdu.woff2?t=1630033759944") format("woff2"), url("//at.alicdn.com/t/font_1031158_u69w8yhxdu.woff?t=1630033759944") format("woff"), url("//at.alicdn.com/t/font_1031158_u69w8yhxdu.ttf?t=1630033759944") format("truetype"); }
</style></defs><path d="M0 0h1024v1024H0z" fill="#707070" opacity=".01" p-id="4320"></path><path d="M360.448 269.596444a28.444444 28.444444 0 0 1-5.063111 39.879112A256 256 0 0 0 512 768a28.444444 28.444444 0 1 1 0 56.888889 312.888889 312.888889 0 0 1-191.431111-560.355556 28.444444 28.444444 0 0 1 39.879111 5.063111zM512 199.111111a312.888889 312.888889 0 0 1 187.448889 563.427556 28.444444 28.444444 0 1 1-34.133333-45.511111A256 256 0 0 0 512 256a28.444444 28.444444 0 0 1 0.056889-56.888889z" fill="#707070" p-id="4321"></path><path d="M369.777778 227.555556a28.444444 28.444444 0 0 1 28.444444 28.444444v170.666667a28.444444 28.444444 0 0 1-56.888889 0V284.444444H199.111111a28.444444 28.444444 0 0 1 0-56.888888h170.666667zM654.222222 796.444444a28.444444 28.444444 0 0 1-28.444444-28.444444v-170.666667a28.444444 28.444444 0 1 1 56.888889 0V739.555556h142.222222a28.444444 28.444444 0 0 1 0 56.888888h-170.666667z" fill="#707070" p-id="4322"></path></svg>